<?xml version="1.0" encoding="UTF-8" standalone="no"?>
<svg
   width="512px"
   height="512px"
   viewBox="0 0 512 512"
   version="1.1"
   id="SVGRoot"
   sodipodi:docname="dirt.svg"
   inkscape:version="1.1-dev (cef4a25b16, 2020-10-10)"
   xmlns:inkscape="http://www.inkscape.org/namespaces/inkscape"
   xmlns:sodipodi="http://sodipodi.sourceforge.net/DTD/sodipodi-0.dtd"
   xmlns="http://www.w3.org/2000/svg"
   xmlns:svg="http://www.w3.org/2000/svg">
  <defs
     id="defs893" />
  <sodipodi:namedview
     id="base"
     pagecolor="#919191"
     bordercolor="#666666"
     borderopacity="1.0"
     inkscape:pageopacity="0"
     inkscape:pageshadow="2"
     inkscape:zoom="1.4"
     inkscape:cx="284.64286"
     inkscape:cy="528.92857"
     inkscape:document-units="px"
     inkscape:current-layer="layer1"
     showgrid="false"
     inkscape:window-width="3840"
     inkscape:window-height="2105"
     inkscape:window-x="0"
     inkscape:window-y="27"
     inkscape:window-maximized="1"
     inkscape:pagecheckerboard="true"
     inkscape:snap-page="true" />
  <g
     inkscape:label="Layer 1"
     inkscape:groupmode="layer"
     id="layer1">
    <path
       id="rect960"
       style="fill:#8a563c;fill-rule:evenodd;stroke:none;stroke-width:1.68567;fill-opacity:1"
       d="M 0,0 H 512 V 512 H 0 Z"
       sodipodi:nodetypes="ccccc" />
    <path
       style="fill:#663f2c;stroke:none;stroke-width:1.0015748;stroke-linecap:butt;stroke-linejoin:miter;stroke-opacity:1;stroke-miterlimit:4;stroke-dasharray:none;fill-opacity:1"
       d="m 112.7533,281.47143 c -1.42768,34.05343 -76.815499,49.1867 -63.156568,80.41342 21.446072,49.0295 106.922118,6.26902 160.026198,12.88583 20.09011,2.50324 39.72059,11.93319 59.88561,10.13027 36.03613,-3.22193 67.99551,-24.75288 102.11029,-36.80132 39.73997,-14.03512 114.72755,0.53645 119.48765,-41.33946 4.11058,-36.16192 -59.59546,-42.47662 -92.53871,-57.94671 -45.6852,-21.45368 -95.49309,-62.07065 -143.79482,-47.43027 -24.77001,7.50786 -22.394,56.36732 -47.82724,61.17065 -38.7047,7.30978 -63.99397,-71.45019 -101.7221,-60.13316 -13.790264,4.13657 -19.865033,24.44751 -18.94488,38.81539 1.02608,16.0219 27.14707,24.19473 26.47457,40.23536 z"
       id="path963"
       sodipodi:nodetypes="sassasssssss" />
  </g>
</svg>
